Coordinates
version=1
nRows=14
nColumns=63
inDegrees=yes

Units are S.I. units (second, meters, Newtons, ...)
If the header above contains a line with 'inDegrees', this indicates whether rotational values are in degrees (yes) or radians (no).

endheader
time	pelvis_tilt	pelvis_list	pelvis_rotation	pelvis_tx	pelvis_ty	pelvis_tz	hip_flexion_r	hip_adduction_r	hip_rotation_r	knee_angle_r	knee_angle_r_beta	ankle_angle_r	subtalar_angle_r	mtp_angle_r	hip_flexion_l	hip_adduction_l	hip_rotation_l	knee_angle_l	knee_angle_l_beta	ankle_angle_l	subtalar_angle_l	mtp_angle_l	L5_S1_Flex_Ext	L5_S1_Lat_Bending	L5_S1_axial_rotation	L4_L5_Flex_Ext	L4_L5_Lat_Bending	L4_L5_axial_rotation	L3_L4_Flex_Ext	L3_L4_Lat_Bending	L3_L4_axial_rotation	L2_L3_Flex_Ext	L2_L3_Lat_Bending	L2_L3_axial_rotation	L1_L2_Flex_Ext	L1_L2_Lat_Bending	L1_L2_axial_rotation	L1_T12_Flex_Ext	L1_T12_Lat_Bending	L1_T12_axial_rotation	Abs_r3	Abs_r2	Abs_r1	Abs_t1	Abs_t2	neck_flexion	neck_bending	neck_rotation	arm_flex_r	arm_add_r	arm_rot_r	elbow_flex_r	pro_sup_r	wrist_flex_r	wrist_dev_r	arm_flex_l	arm_add_l	arm_rot_l	elbow_flex_l	pro_sup_l	wrist_flex_l	wrist_dev_l
1.119048	-5.236374	5.761161	98.638900	0.243263	0.788473	0.689290	-2.439358	-4.005068	-3.918371	8.903852	0.155402	23.625886	-1.468444	0.000000	-2.486785	2.079339	3.019477	3.733451	0.065161	20.111402	2.896854	0.000000	-0.352061	-1.474293	-3.499710	-0.653812	-1.960809	-3.718442	-0.578400	-3.584595	-3.718442	-0.402370	-3.584595	-3.062246	-0.326923	-3.006378	-2.843514	-0.201167	-2.283679	-2.624783	-2.514734	-16.677494	-19.464337	0.000000	0.000000	17.292382	16.284266	-10.090495	37.229946	20.536558	8.234318	149.641005	85.958888	-5.613334	12.998335	2.504186	-19.016083	134.222589	2.331520	3.172644	-7.052692	-10.816460
1.142857	-5.162673	5.563234	98.879574	0.243323	0.788155	0.689894	-2.116590	-3.938998	-4.195091	9.046655	0.157894	23.565876	-1.472521	0.000000	-2.236770	1.993432	2.980437	3.642865	0.063580	20.349208	3.282722	0.000000	-0.354537	-1.470241	-3.556065	-0.658412	-1.955421	-3.778319	-0.582470	-3.574744	-3.778319	-0.405201	-3.574744	-3.111557	-0.329223	-2.998116	-2.889303	-0.202583	-2.277403	-2.667049	-2.532426	-16.631661	-19.777765	0.000000	0.000000	17.533625	16.313283	-10.065829	36.194048	20.890754	9.273273	149.740955	85.671226	-6.478142	13.170103	2.498459	-19.056874	132.772718	2.529712	2.737798	-6.338272	-11.291110
1.166667	-5.064217	5.392924	99.112491	0.243243	0.787847	0.690352	-1.853278	-3.849852	-4.534319	9.136712	0.159466	23.517580	-1.396398	0.000000	-2.053829	1.887198	2.921051	3.485671	0.060836	20.618118	3.702612	0.000000	-0.357379	-1.460893	-3.601177	-0.663688	-1.942988	-3.826251	-0.587138	-3.552015	-3.826251	-0.408448	-3.552015	-3.151030	-0.331862	-2.979053	-2.925956	-0.204206	-2.262923	-2.700883	-2.552722	-16.525915	-20.028666	0.000000	0.000000	17.711066	16.216959	-10.057870	35.400000	21.052489	10.118674	149.741609	85.401809	-7.320203	13.353969	2.554493	-19.071303	131.679348	2.670223	2.724205	-5.616782	-11.606347
1.190476	-4.948469	5.246048	99.337426	0.243079	0.787557	0.690659	-1.643305	-3.740065	-4.867720	9.175307	0.160139	23.479442	-1.318202	0.000000	-1.924466	1.766449	2.813076	3.280910	0.057263	20.922698	4.180633	0.000000	-0.359862	-1.448758	-3.635801	-0.668300	-1.926848	-3.863038	-0.591217	-3.522510	-3.863038	-0.411286	-3.522510	-3.181325	-0.334168	-2.954308	-2.954088	-0.205625	-2.244126	-2.726850	-2.570458	-16.388642	-20.221232	0.000000	0.000000	17.793981	16.033770	-10.079190	34.849868	21.045206	10.737021	149.667099	85.208290	-8.020170	13.490570	2.658769	-19.087053	130.718769	2.802615	2.982674	-5.028271	-11.866403
1.214286	-4.813214	5.113644	99.545822	0.242843	0.787267	0.690808	-1.477286	-3.605342	-5.125084	9.156657	0.159814	23.444995	-1.337323	0.000000	-1.832710	1.631121	2.700706	3.047664	0.053192	21.231135	4.650723	0.000000	-0.359230	-1.433673	-3.656719	-0.667127	-1.906785	-3.885264	-0.590180	-3.485832	-3.885264	-0.410564	-3.485832	-3.199629	-0.333581	-2.923545	-2.971084	-0.205264	-2.220759	-2.742539	-2.565947	-16.217992	-20.337572	0.000000	0.000000	17.744952	15.753655	-10.115833	34.503742	20.886673	11.146318	149.534710	85.097476	-8.580171	13.565215	2.814913	-19.100075	129.672275	2.986354	3.323878	-4.625532	-12.131765
1.238095	-4.667011	5.011618	99.748013	0.242577	0.786996	0.690835	-1.365523	-3.453893	-5.347095	9.093608	0.158713	23.456659	-1.369926	0.000000	-1.786447	1.479407	2.498359	2.808202	0.049012	21.526216	5.260396	0.000000	-0.359020	-1.418199	-3.665614	-0.666737	-1.886205	-3.894715	-0.589834	-3.448209	-3.894715	-0.410324	-3.448209	-3.207413	-0.333386	-2.891991	-2.978312	-0.205144	-2.196790	-2.749211	-2.564446	-16.042951	-20.387047	0.000000	0.000000	17.593673	15.421031	-10.214528	34.296829	20.624055	11.363217	149.394291	85.033990	-9.081233	13.755057	3.024378	-19.100112	128.703878	3.155720	3.514896	-4.278581	-12.456702
1.261905	-4.513504	4.922105	99.925060	0.242320	0.786710	0.690740	-1.284968	-3.286183	-5.436186	8.990483	0.156914	23.480877	-1.544512	0.000000	-1.762631	1.324320	2.416392	2.585136	0.045119	21.730338	5.675642	0.000000	-0.354811	-1.402669	-3.659325	-0.658920	-1.865550	-3.888033	-0.582919	-3.410450	-3.888033	-0.405514	-3.410450	-3.201909	-0.329478	-2.860323	-2.973201	-0.202739	-2.172735	-2.744494	-2.534382	-15.867276	-20.352067	0.000000	0.000000	17.276264	15.003460	-10.304282	34.148152	20.295556	11.453602	149.266251	85.024284	-9.555089	13.993736	3.281284	-19.090021	127.588759	3.395257	3.572290	-4.083821	-12.839836
1.285714	-4.369319	4.852429	100.085696	0.242079	0.786418	0.690538	-1.244274	-3.117819	-5.407019	8.861132	0.154656	23.507163	-1.866641	0.000000	-1.762891	1.178587	2.430236	2.399684	0.041882	21.816999	5.949417	0.000000	-0.349070	-1.389463	-3.639941	-0.648258	-1.847986	-3.867437	-0.573487	-3.378341	-3.867437	-0.398952	-3.378341	-3.184948	-0.324146	-2.833394	-2.957452	-0.199459	-2.152279	-2.729955	-2.493372	-15.717888	-20.244258	0.000000	0.000000	16.818269	14.549969	-10.376955	33.985142	19.936962	11.477486	149.188017	85.064637	-10.039081	14.265870	3.584353	-19.073072	126.236184	3.709730	3.529197	-3.957404	-13.316210
1.309524	-4.240682	4.790639	100.220914	0.241880	0.786109	0.690268	-1.220445	-2.957257	-5.249686	8.728258	0.152337	23.512808	-2.356193	0.000000	-1.766686	1.054232	2.596547	2.268981	0.039601	21.768703	5.963776	0.000000	-0.340335	-1.378628	-3.609474	-0.632037	-1.833575	-3.835066	-0.559137	-3.351995	-3.835066	-0.388969	-3.351995	-3.158290	-0.316035	-2.811297	-2.932698	-0.194468	-2.135494	-2.707106	-2.430980	-15.595311	-20.074813	0.000000	0.000000	16.201177	14.029335	-10.364583	33.741365	19.571721	11.512118	149.132769	85.167391	-10.493557	14.373318	3.916514	-19.037314	124.637569	4.088035	3.441079	-3.913414	-13.836324
1.333333	-4.113487	4.755779	100.301031	0.241760	0.785829	0.689953	-1.224568	-2.790413	-4.969779	8.597691	0.150058	23.479241	-2.968507	0.000000	-1.794264	0.935494	2.906099	2.189044	0.038206	21.587723	5.690285	0.000000	-0.332839	-1.368029	-3.565539	-0.618115	-1.819479	-3.788385	-0.546821	-3.326226	-3.788385	-0.380401	-3.326226	-3.119846	-0.309074	-2.789685	-2.897000	-0.190184	-2.119077	-2.674154	-2.377434	-15.475420	-19.830457	0.000000	0.000000	15.457442	13.401037	-10.275997	33.400458	19.197800	11.555153	149.087558	85.337607	-10.827020	14.315909	4.277517	-18.962709	123.122986	4.485532	3.295167	-4.012633	-14.305704
1.357143	-4.005285	4.734151	100.324751	0.241735	0.785608	0.689611	-1.237984	-2.645262	-4.645304	8.481404	0.148028	23.428098	-3.557089	0.000000	-1.831722	0.840296	3.282310	2.159678	0.037693	21.290690	5.221126	0.000000	-0.326677	-1.359631	-3.511811	-0.606671	-1.808309	-3.731299	-0.536697	-3.305806	-3.731299	-0.373359	-3.305806	-3.072835	-0.303352	-2.772559	-2.853346	-0.186663	-2.106068	-2.633858	-2.333418	-15.380415	-19.531639	0.000000	0.000000	14.652328	12.659049	-10.131596	32.973923	18.834106	11.600992	149.052609	85.578417	-10.987850	14.140567	4.637824	-18.872624	121.547771	4.910596	3.204976	-4.257634	-14.724225
1.380952	-3.932476	4.685774	100.356992	0.241765	0.785431	0.689321	-1.220167	-2.541765	-4.340854	8.389600	0.146426	23.374068	-4.118925	0.000000	-1.816737	0.782874	3.684404	2.202469	0.038440	20.912539	4.698500	0.000000	-0.319618	-1.356256	-3.466272	-0.593563	-1.803821	-3.682913	-0.525101	-3.297602	-3.682913	-0.365292	-3.297602	-3.032988	-0.296798	-2.765678	-2.816346	-0.182630	-2.100841	-2.599704	-2.283002	-15.342242	-19.278362	0.000000	0.000000	13.878853	11.931363	-9.903970	32.513044	18.479509	11.738341	149.026408	85.897803	-11.196082	13.817854	4.961499	-18.774298	119.949085	5.270893	3.129868	-4.532329	-15.059953
1.404762	-3.877096	4.627645	100.372423	0.241869	0.785313	0.689050	-1.183419	-2.460508	-4.038615	8.324602	0.145292	23.309674	-4.645741	0.000000	-1.765118	0.742366	4.070399	2.309834	0.040314	20.505857	4.160104	0.000000	-0.313572	-1.355312	-3.421624	-0.582334	-1.802565	-3.635475	-0.515167	-3.295307	-3.635475	-0.358381	-3.295307	-2.993921	-0.291183	-2.763753	-2.780069	-0.179175	-2.099379	-2.566218	-2.239812	-15.331565	-19.030045	0.000000	0.000000	13.189810	11.261301	-9.607464	32.059282	18.114197	11.922030	149.017906	86.263509	-11.364296	13.432367	5.259505	-18.670459	118.454825	5.574977	3.121970	-4.888289	-15.283122
1.428571	-3.845485	4.565247	100.384716	0.242028	0.785248	0.688753	-1.138077	-2.407655	-3.749811	8.289256	0.144675	23.258118	-5.106579	0.000000	-1.688152	0.725107	4.432370	2.464804	0.043019	20.102371	3.614369	0.000000	-0.307172	-1.357280	-3.379526	-0.570449	-1.805183	-3.590746	-0.504653	-3.300092	-3.590746	-0.351067	-3.300092	-2.957085	-0.285240	-2.767766	-2.745865	-0.175518	-2.102427	-2.534645	-2.194098	-15.353828	-18.795910	0.000000	0.000000	12.608292	10.639897	-9.272482	31.627899	17.737466	12.126703	149.012147	86.633751	-11.459995	12.957143	5.522524	-18.571132	117.057797	5.835617	3.204548	-5.331460	-15.414476
